<?xml version="1.0" standalone="no"?>
<!DOCTYPE svg PUBLIC "-//W3C//DTD SVG 1.1//EN" "http://www.w3.org/Graphics/SVG/1.1/DTD/svg11.dtd" >
<svg xmlns="http://www.w3.org/2000/svg">
<metadata>
This is a custom SVG webfont generated by Font Squirrel.
Copyright   : Copyright uberscientist 2012
Designer    : uberscientist
Foundry     : httpfontstructcom
Foundry URL : httpwwwfontshopcom
</metadata>
<defs>
<font id="exp2Regular" horiz-adv-x="1578" >
<font-face units-per-em="2048" ascent="1638" descent="-410" />
<missing-glyph horiz-adv-x="768" />
<glyph unicode=" "  horiz-adv-x="768" />
<glyph unicode="&#x09;" horiz-adv-x="768" />
<glyph unicode="&#xa0;" horiz-adv-x="768" />
<glyph unicode="&#x22;" horiz-adv-x="682" d="M128 1152v384q52 0 90 -38t38 -90v-256l-64 -128zM384 1152v256q0 52 36 90q38 38 92 38v-384l-64 -128z" />
<glyph unicode="'" horiz-adv-x="554" d="M128 1408q0 52 36 90q38 38 92 38q52 0 90 -38t38 -90v-256l-64 -128l-64 128v128q-54 0 -92 36q-36 38 -36 92z" />
<glyph unicode="," horiz-adv-x="426" d="M0 128q0 52 36 90q38 38 92 38q52 0 90 -38t38 -90v-256q0 -52 -38 -90t-90 -38h-128q52 0 90 38t38 90v128q-54 0 -92 36q-36 38 -36 92z" />
<glyph unicode="." horiz-adv-x="426" d="M0 128q0 52 36 90q38 38 92 38q52 0 90 -38t38 -90q0 -54 -38 -92q-38 -36 -90 -36q-54 0 -92 36q-36 38 -36 92z" />
<glyph unicode="A" horiz-adv-x="1706" d="M0 0q52 0 90 36q38 38 38 92v1280q0 52 36 90q38 38 92 38v128q0 -54 36 -92q38 -36 92 -36h384q52 0 90 36q38 38 38 92v-128l512 -512v-896q0 -54 36 -92q38 -36 92 -36h-384q52 0 90 36q38 38 38 92v896l-384 384h-256q-54 0 -92 -38q-36 -38 -36 -90v-384 q0 -54 36 -92q38 -36 92 -36h384q52 0 90 -38t38 -90v-128q0 52 -38 90t-90 38h-512v-512q0 -54 36 -92q38 -36 92 -36h-640zM256 192q0 -28 18 -46t46 -18q26 0 44 18q20 18 20 46v1152q0 26 -20 44q-18 20 -44 20q-28 0 -46 -20q-18 -18 -18 -44v-1152z" />
<glyph unicode="B" d="M0 -128q52 0 90 38t38 90v1664q0 -54 36 -92q38 -36 92 -36h768q52 0 90 -38t38 -90v-512q0 -54 -38 -92q-38 -36 -90 -36h256q52 0 90 -38t38 -90v-512q0 -54 -38 -92q-38 -36 -90 -36h-1024q0 -52 -38 -90t-90 -38h-128zM256 192q0 -28 18 -46t46 -18q26 0 44 18 q20 18 20 46v1152q0 26 -20 44q-18 20 -44 20q-28 0 -46 -20q-18 -18 -18 -44v-1152zM512 192q0 -28 18 -46t46 -18h576q52 0 90 36q38 38 38 92v256q0 52 -38 90t-90 38h-384q-54 0 -92 -38q-36 -38 -36 -90v128q0 52 36 90q38 38 92 38h128q52 0 90 36q38 38 38 92v384 q0 52 -38 90t-90 38h-320q-28 0 -46 -20q-18 -18 -18 -44v-1152zM768 384q52 0 90 36q38 38 38 92h64q26 0 44 -20q20 -18 20 -44q0 -28 -20 -46q-18 -18 -44 -18h-192zM792 960q0 12 12 24q12 14 28 14q12 0 24 -12q14 -12 14 -26q0 -16 -12 -28q-10 -12 -26 -12 q-14 0 -26 12q-14 12 -14 28z" />
<glyph unicode="C" d="M0 256v1024l256 256v128q0 -54 36 -92q38 -36 92 -36h640q52 0 90 36q38 38 38 92v-128l128 -128v-256q0 52 -38 90t-90 38q0 52 -38 90t-90 38h-512q-54 0 -92 -38q-36 -38 -36 -90v-1024q0 -54 36 -92q38 -36 92 -36h640q52 0 90 36q38 38 38 92q52 0 90 36 q38 38 38 92v-256l-128 -128h-1024zM128 320q0 -28 18 -46t46 -18q26 0 44 18q20 18 20 46v896q0 26 -20 44q-18 20 -44 20q-28 0 -46 -20q-18 -18 -18 -44v-896z" />
<glyph unicode="D" d="M0 0q52 0 90 36q38 38 38 92v1536q0 -54 36 -92q38 -36 92 -36h640q52 0 90 36q38 38 38 92v-128l384 -384v-768l-384 -384h-1024zM256 192q0 -28 18 -46t46 -18q26 0 44 18q20 18 20 46v1152q0 26 -20 44q-18 20 -44 20q-28 0 -46 -20q-18 -18 -18 -44v-1152zM512 256 q0 -54 36 -92q38 -36 92 -36h256l384 384v512l-384 384h-256q-54 0 -92 -38q-36 -38 -36 -90v-1024z" />
<glyph unicode="E" d="M0 0q52 0 90 36q38 38 38 92v1280q0 52 -38 90t-90 38h1280q52 0 90 36q38 38 38 92v-128q0 -54 -38 -92q-38 -36 -90 -36h-640q-54 0 -92 -38q-36 -38 -36 -90v-384h384q52 0 90 36q38 38 38 92v-384q0 52 -38 90t-90 38h-384v-640h768q52 0 90 -38t38 -90v-128 q0 54 -38 92q-38 36 -90 36h-1280zM256 192q0 -28 18 -46t46 -18q26 0 44 18q20 18 20 46v1152q0 26 -20 44q-18 20 -44 20q-28 0 -46 -20q-18 -18 -18 -44v-1152z" />
<glyph unicode="F" d="M0 0q52 0 90 36q38 38 38 92v1280q-54 0 -92 36q-36 38 -36 92v128q0 -54 36 -92q38 -36 92 -36h1152q52 0 90 36q38 38 38 92v-128q0 -54 -38 -92q-38 -36 -90 -36h-640q-54 0 -92 -38q-36 -38 -36 -90v-384h384q52 0 90 36q38 38 38 92v-384q0 52 -38 90t-90 38h-256 q-54 0 -92 -38q-36 -38 -36 -90v-512q0 -54 36 -92q38 -36 92 -36h-640zM256 192q0 -28 18 -46t46 -18q26 0 44 18q20 18 20 46v1152q0 26 -20 44q-18 20 -44 20q-28 0 -46 -20q-18 -18 -18 -44v-1152z" />
<glyph unicode="G" d="M0 256v1024l256 256v128q0 -54 36 -92q38 -36 92 -36h640q52 0 90 36q38 38 38 92v-128l128 -128v-256q0 52 -38 90t-90 38q0 52 -38 90t-90 38h-512q-54 0 -92 -38q-36 -38 -36 -90v-1024q0 -54 36 -92q38 -36 92 -36h640q52 0 90 36q38 38 38 92v256q0 52 -38 90 t-90 38h-256q-54 0 -92 -38q-36 -38 -36 -90v256h512l128 -128v-512l-128 -128h-1024zM128 320q0 -28 18 -46t46 -18q26 0 44 18q20 18 20 46v896q0 26 -20 44q-18 20 -44 20q-28 0 -46 -20q-18 -18 -18 -44v-896z" />
<glyph unicode="H" d="M0 0q52 0 90 36q38 38 38 92v1536q0 -54 36 -92q38 -36 92 -36h128q52 0 90 -38t38 -90v-640h384q52 0 90 -38t38 -90v-128q0 52 -38 90t-90 38h-384v-512q0 -54 36 -92q38 -36 92 -36h-640zM256 192q0 -28 18 -46t46 -18q26 0 44 18q20 18 20 46v1152q0 26 -20 44 q-18 20 -44 20q-28 0 -46 -20q-18 -18 -18 -44v-1152zM1024 0q52 0 90 36q38 38 38 92v1280q0 52 -38 90t-90 38h384q-54 0 -92 -38q-36 -38 -36 -90v-1280q0 -54 36 -92q38 -36 92 -36h-384z" />
<glyph unicode="I" horiz-adv-x="1322" d="M0 0q0 52 36 90q38 38 92 38h128q52 0 90 36q38 38 38 92v1024q0 52 -38 90t-90 38h-128q-54 0 -92 -38q-36 -38 -36 -90v128q0 52 36 90q38 38 92 38h896q52 0 90 36q38 38 38 92v-128q0 -54 -38 -92q-38 -36 -90 -36h-128q-54 0 -92 -38q-36 -38 -36 -90v-1024 q0 -54 36 -92q38 -36 92 -36h128l128 -128h-1024q-54 0 -92 -36q-36 -38 -36 -92v128zM512 192q0 -28 18 -46t46 -18q26 0 44 18q20 18 20 46v1152q0 26 -20 44q-18 20 -44 20q-28 0 -46 -20q-18 -18 -18 -44v-1152z" />
<glyph unicode="J" d="M-128 512h128q52 0 90 -38t38 -90v-256h384q52 0 90 36q38 38 38 92v1024q0 52 -38 90t-90 38h-384q-54 0 -92 -38q-36 -38 -36 -90v128q0 52 36 90q38 38 92 38h1152q52 0 90 36q38 38 38 92v-128q0 -54 -38 -92q-38 -36 -90 -36h-128q-54 0 -92 -38q-36 -38 -36 -90 v-1152q0 -54 -38 -92q-38 -36 -90 -36h-768q-54 0 -92 36q-36 38 -36 92v256q0 52 -36 90q-38 38 -92 38zM768 192q0 -28 18 -46t46 -18q26 0 44 18q20 18 20 46v1152q0 26 -20 44q-18 20 -44 20q-28 0 -46 -20q-18 -18 -18 -44v-1152z" />
<glyph unicode="K" horiz-adv-x="1450" d="M0 0q52 0 90 36q38 38 38 92v1536q0 -54 36 -92q38 -36 92 -36h128l128 -128v-512l128 128h384v512q52 0 90 36q38 38 38 92v-640q0 -54 -38 -92q-38 -36 -90 -36h-384l-128 -128h256l384 -384v-256q0 -54 36 -92q38 -36 92 -36h-256v384l-256 256h-256v-512 q0 -54 -38 -92q-38 -36 -90 -36h-384zM256 192q0 -28 18 -46t46 -18q26 0 44 18q20 18 20 46v1152q0 26 -20 44q-18 20 -44 20q-28 0 -46 -20q-18 -18 -18 -44v-1152z" />
<glyph unicode="L" d="M-128 1536v128q0 -54 38 -92q38 -36 90 -36h384q52 0 90 36q38 38 38 92v-128q0 -54 -38 -92q-38 -36 -90 -36v-1152q0 -54 36 -92q38 -36 92 -36h640q0 52 36 90q38 38 92 38h128q-54 0 -92 -38q-36 -38 -36 -90q0 -54 -38 -92q-38 -36 -90 -36h-1024q-54 0 -92 36 q-36 38 -36 92v1280q-52 0 -90 36q-38 38 -38 92zM128 192q0 -28 18 -46t46 -18q26 0 44 18q20 18 20 46v1152q0 26 -20 44q-18 20 -44 20q-28 0 -46 -20q-18 -18 -18 -44v-1152z" />
<glyph unicode="M" d="M-128 0q54 0 92 36q36 38 36 92v1024l384 384v128q0 -54 36 -92q38 -36 92 -36l128 -128h128l128 128q52 0 90 36q38 38 38 92v-128l384 -384v-1024q0 -54 -38 -92q-38 -36 -90 -36h-128q52 0 90 36q38 38 38 92v1024l-256 256h-128q-54 0 -92 -38q-36 -38 -36 -90v-768 q0 -54 36 -92q38 -36 92 -36h-384q52 0 90 36q38 38 38 92v768q0 52 -38 90t-90 38q-54 0 -92 -38q-36 -38 -36 -90v-1152q0 -54 -38 -92q-38 -36 -90 -36h-384zM128 192q0 -28 18 -46t46 -18q26 0 44 18q20 18 20 46v896q0 26 -20 44q-18 20 -44 20q-28 0 -46 -20 q-18 -18 -18 -44v-896z" />
<glyph unicode="N" horiz-adv-x="1706" d="M-128 0q54 0 92 36q36 38 36 92v1536q0 -54 36 -92q38 -36 92 -36h128l896 -896v-256q0 52 -38 90t-90 38l-640 640v-1024q0 -54 36 -92q38 -36 92 -36h-640zM128 192q0 -28 18 -46t46 -18q26 0 44 18q20 18 20 46v1152q0 26 -20 44q-18 20 -44 20q-28 0 -46 -20 q-18 -18 -18 -44v-1152zM1280 0v1536q52 0 90 36q38 38 38 92v-1536q0 -54 36 -92q38 -36 92 -36h-256z" />
<glyph unicode="O" d="M0 256v1024l256 256v128q0 -54 36 -92q38 -36 92 -36h640q52 0 90 36q38 38 38 92v-128l256 -256v-1024l-256 -256h-896zM128 320q0 -28 18 -46t46 -18q26 0 44 18q20 18 20 46v896q0 26 -20 44q-18 20 -44 20q-28 0 -46 -20q-18 -18 -18 -44v-896zM384 256q0 -54 36 -92 q38 -36 92 -36h640l128 128v1024l-128 128h-640q-54 0 -92 -38q-36 -38 -36 -90v-1024zM768 960q0 26 18 44q18 20 46 20q26 0 44 -20q20 -18 20 -44q0 -28 -20 -46q-18 -18 -44 -18q-28 0 -46 18t-18 46z" />
<glyph unicode="P" horiz-adv-x="1450" d="M0 0q52 0 90 36q38 38 38 92v1280q-54 0 -92 36q-36 38 -36 92v128q0 -54 36 -92q38 -36 92 -36h1024q52 0 90 -38t38 -90v-512q0 -54 -38 -92q-38 -36 -90 -36h-640v-640q0 -54 36 -92q38 -36 92 -36h-640zM256 192q0 -28 18 -46t46 -18q26 0 44 18q20 18 20 46v1152 q0 26 -20 44q-18 20 -44 20q-28 0 -46 -20q-18 -18 -18 -44v-1152zM512 896h512q52 0 90 36q38 38 38 92v256q0 52 -38 90t-90 38h-384q-54 0 -92 -38q-36 -38 -36 -90v-384zM768 1024q52 0 90 36q38 38 38 92v64q0 26 18 44q18 20 46 20q26 0 44 -20q20 -18 20 -44v-64 q0 -54 -38 -92q-38 -36 -90 -36h-128z" />
<glyph unicode="Q" d="M0 256v1024l256 256v128q0 -54 36 -92q38 -36 92 -36h640q52 0 90 36q38 38 38 92v-128l256 -256v-1024q0 52 -38 90t-90 38v896l-128 128h-640q-54 0 -92 -38q-36 -38 -36 -90v-1024q0 -54 36 -92q38 -36 92 -36h512l-128 128q0 52 36 90q38 38 92 38l384 -384v-256 l-256 256h-896zM128 320q0 -28 18 -46t46 -18q26 0 44 18q20 18 20 46v896q0 26 -20 44q-18 20 -44 20q-28 0 -46 -20q-18 -18 -18 -44v-896z" />
<glyph unicode="R" horiz-adv-x="1706" d="M0 0q52 0 90 36q38 38 38 92v1536q0 -54 36 -92q38 -36 92 -36h768q52 0 90 36q38 38 38 92v-128q52 0 90 -38t38 -90v-640q0 -54 -38 -92q-38 -36 -90 -36h128q52 0 90 -38t38 -90v-384q0 -54 36 -92q38 -36 92 -36h-128q-54 0 -92 36q-36 38 -36 92v384h-384 q-54 0 -92 36q-36 38 -36 92h-256v-512q0 -54 -38 -92q-38 -36 -90 -36h-384zM256 192q0 -28 18 -46t46 -18q26 0 44 18q20 18 20 46v1152q0 26 -20 44q-18 20 -44 20q-28 0 -46 -20q-18 -18 -18 -44v-1152zM512 896q0 -54 36 -92q38 -36 92 -36h384q52 0 90 36q38 38 38 92 v384q0 52 -38 90t-90 38h-512v-512zM768 1024v128q0 -54 36 -92q38 -36 92 -36h64q26 0 44 -20q20 -18 20 -44q0 -28 -20 -46q-18 -18 -44 -18h-64q-54 0 -92 36q-36 38 -36 92z" />
<glyph unicode="S" horiz-adv-x="1706" d="M0 128v384l256 128h128l128 -64v-192q0 52 -38 90t-90 38h-128q-54 0 -92 -38q-36 -38 -36 -90v-192q0 -28 18 -46t46 -18h704l256 256l64 128l-64 64l-640 320h-384q-54 0 -92 36q-36 38 -36 92v256l256 256v128q0 -54 36 -92q38 -36 92 -36h768q52 0 90 36q38 38 38 92 v-128l128 -128v-128q0 -54 36 -92q38 -36 92 -36h-128q-54 0 -92 36q-36 38 -36 92q0 52 -38 90t-90 38h-512l-384 -384h384l768 -384l64 -128v-128l-128 -256l-64 -64l-128 -64h-1024zM128 1024l384 384h-128l-256 -256v-128zM256 320q0 26 18 44q18 20 46 20q26 0 44 -20 q20 -18 20 -44q0 -28 -20 -46q-18 -18 -44 -18q-28 0 -46 18t-18 46zM1024 128h128l256 256v128zM1024 1216q0 26 18 44q18 20 46 20q26 0 44 -20q20 -18 20 -44q0 -28 -20 -46q-18 -18 -44 -18q-28 0 -46 18t-18 46z" />
<glyph unicode="T" horiz-adv-x="1706" d="M0 1536v128q0 -54 36 -92q38 -36 92 -36h1280q52 0 90 36q38 38 38 92v-128q0 -54 -38 -92q-38 -36 -90 -36h-384q-54 0 -92 -38q-36 -38 -36 -90v-1152q0 -54 36 -92q38 -36 92 -36h-640q52 0 90 36q38 38 38 92v1152q0 52 -38 90t-90 38h-256q-54 0 -92 36 q-36 38 -36 92zM256 960q0 26 18 44q18 20 46 20q26 0 44 -20q20 -18 20 -44q0 -28 -20 -46q-18 -18 -44 -18q-28 0 -46 18t-18 46zM640 192q0 -28 18 -46t46 -18q26 0 44 18q20 18 20 46v1152q0 26 -20 44q-18 20 -44 20q-28 0 -46 -20q-18 -18 -18 -44v-1152z" />
<glyph unicode="U" horiz-adv-x="1706" d="M0 256v1408q0 -54 36 -92q38 -36 92 -36h128q52 0 90 -38t38 -90v-960l640 -320l384 192v960q-54 0 -92 36q-36 38 -36 92q0 52 36 90q38 38 92 38q52 0 90 36q38 38 38 92v-1408l-512 -256h-512zM128 320l384 -192h256l-512 256v960q0 26 -20 44q-18 20 -44 20 q-28 0 -46 -20q-18 -18 -18 -44v-1024zM896 448q0 26 18 44q18 20 46 20q26 0 44 -20q20 -18 20 -44q0 -28 -20 -46q-18 -18 -44 -18q-28 0 -46 18t-18 46z" />
<glyph unicode="V" horiz-adv-x="1706" d="M0 1280v128q0 52 36 90q38 38 92 38h128l576 -1152l448 896q0 52 36 90q38 38 92 38q52 0 90 36q38 38 38 92v-128q0 -54 -38 -92q-38 -36 -90 -36l-640 -1280h-128zM128 1280l576 -1152l64 128l-576 1152h-64v-128zM768 960q0 26 18 44q18 20 46 20q26 0 44 -20 q20 -18 20 -44q0 -28 -20 -46q-18 -18 -44 -18q-28 0 -46 18t-18 46z" />
<glyph unicode="W" horiz-adv-x="1834" d="M0 384v1280q0 -54 36 -92q38 -36 92 -36h128l128 -128v-1152q0 -54 36 -92q38 -36 92 -36h128q52 0 90 36q38 38 38 92v768q0 52 -38 90t-90 38h384q-54 0 -92 -38q-36 -38 -36 -90v-768q0 -54 36 -92q38 -36 92 -36h256l128 128v1152q0 52 36 90q38 38 92 38h128 q-54 0 -92 -38q-36 -38 -36 -90v-1024l-128 -256l-256 -128h-128l-128 128h-128l-128 -128h-384l-128 128zM128 448q0 -28 18 -46t46 -18q26 0 44 18q20 18 20 46v896q0 26 -20 44q-18 20 -44 20q-28 0 -46 -20q-18 -18 -18 -44v-896z" />
<glyph unicode="X" horiz-adv-x="1706" d="M0 0v128l512 512v256l-512 512v256q0 -54 36 -92q38 -36 92 -36v-128l512 -512v-256l-512 -512v-128h-128zM128 0l640 640v256l-640 640h128l640 -640l512 512v128q52 0 90 36q38 38 38 92v-256l-512 -512v-256l512 -512v-128h-256q52 0 90 36q38 38 38 92l-512 512 l-640 -640h-128zM768 192q0 26 18 44q18 20 46 20q26 0 44 -20q20 -18 20 -44q0 -28 -20 -46q-18 -18 -44 -18q-28 0 -46 18t-18 46zM768 1216q0 26 18 44q18 20 46 20q26 0 44 -20q20 -18 20 -44q0 -28 -20 -46q-18 -18 -44 -18q-28 0 -46 18t-18 46z" />
<glyph unicode="Y" d="M0 1408v256q0 -54 36 -92q38 -36 92 -36v-128l384 -384l128 -64h128l128 64l384 384v128q52 0 90 36q38 38 38 92v-256l-512 -512l-128 -256v-512q0 -54 36 -92q38 -36 92 -36h-320q26 0 44 18q20 18 20 46v576l-128 256v-832q0 -28 18 -46t46 -18h-192l64 128v768 l-64 128zM640 1216q0 26 18 44q18 20 46 20q26 0 44 -20q20 -18 20 -44q0 -28 -20 -46q-18 -18 -44 -18q-28 0 -46 18t-18 46z" />
<glyph unicode="Z" horiz-adv-x="1706" d="M0 0v128l1280 1280h-1152q-54 0 -92 -38q-36 -38 -36 -90v384q0 -54 36 -92q38 -36 92 -36h1280q52 0 90 36q38 38 38 92v-256l-1280 -1280h128l1152 1152v-128l-1024 -1024h896q52 0 90 36q38 38 38 92v-256h-1536zM384 960q0 26 18 44q18 20 46 20q26 0 44 -20 q20 -18 20 -44q0 -28 -20 -46q-18 -18 -44 -18q-28 0 -46 18t-18 46z" />
<glyph unicode="&#x152;" horiz-adv-x="3156" d="M1578 0q52 0 90 36q38 38 38 92v1280q0 52 -38 90t-90 38h1280q52 0 90 36q38 38 38 92v-128q0 -54 -38 -92q-38 -36 -90 -36h-640q-54 0 -92 -38q-36 -38 -36 -90v-384h384q52 0 90 36q38 38 38 92v-384q0 52 -38 90t-90 38h-384v-640h768q52 0 90 -38t38 -90v-128 q0 54 -38 92q-38 36 -90 36h-1280zM1834 192q0 -28 18 -46t46 -18q26 0 44 18q20 18 20 46v1152q0 26 -20 44q-18 20 -44 20q-28 0 -46 -20q-18 -18 -18 -44v-1152zM0 256v1024l256 256v128q0 -54 36 -92q38 -36 92 -36h640q52 0 90 36q38 38 38 92v-128l256 -256v-1024 l-256 -256h-896zM128 320q0 -28 18 -46t46 -18q26 0 44 18q20 18 20 46v896q0 26 -20 44q-18 20 -44 20q-28 0 -46 -20q-18 -18 -18 -44v-896zM384 256q0 -54 36 -92q38 -36 92 -36h640l128 128v1024l-128 128h-640q-54 0 -92 -38q-36 -38 -36 -90v-1024zM768 960 q0 26 18 44q18 20 46 20q26 0 44 -20q20 -18 20 -44q0 -28 -20 -46q-18 -18 -44 -18q-28 0 -46 18t-18 46z" />
<glyph unicode="&#x2000;" horiz-adv-x="832" />
<glyph unicode="&#x2001;" horiz-adv-x="1664" />
<glyph unicode="&#x2002;" horiz-adv-x="832" />
<glyph unicode="&#x2003;" horiz-adv-x="1664" />
<glyph unicode="&#x2004;" horiz-adv-x="554" />
<glyph unicode="&#x2005;" horiz-adv-x="416" />
<glyph unicode="&#x2006;" horiz-adv-x="276" />
<glyph unicode="&#x2007;" horiz-adv-x="276" />
<glyph unicode="&#x2008;" horiz-adv-x="208" />
<glyph unicode="&#x2009;" horiz-adv-x="332" />
<glyph unicode="&#x200a;" horiz-adv-x="92" />
<glyph unicode="&#x2013;" horiz-adv-x="1024" d="M204 512v204h616v-204h-616z" />
<glyph unicode="&#x2014;" horiz-adv-x="2048" d="M204 512v204h1640v-204h-1640z" />
<glyph unicode="&#x2018;" horiz-adv-x="554" d="M128 1152v256q0 52 36 90q38 38 92 38h128q-54 0 -92 -38q-36 -38 -36 -90v-128q52 0 90 -38t38 -90q0 -54 -38 -92q-38 -36 -90 -36q-54 0 -92 36q-36 38 -36 92z" />
<glyph unicode="&#x2019;" horiz-adv-x="554" d="M128 1024q52 0 90 36q38 38 38 92v128q-54 0 -92 36q-36 38 -36 92q0 52 36 90q38 38 92 38q52 0 90 -38t38 -90v-256q0 -54 -38 -92q-38 -36 -90 -36h-128z" />
<glyph unicode="&#x201c;" horiz-adv-x="938" d="M128 1152v256q0 52 36 90q38 38 92 38h128q-54 0 -92 -38q-36 -38 -36 -90v-128q52 0 90 -38t38 -90q0 -54 -38 -92q-38 -36 -90 -36q-54 0 -92 36q-36 38 -36 92zM512 1152v256q0 52 36 90q38 38 92 38h128q-54 0 -92 -38q-36 -38 -36 -90v-128q52 0 90 -38t38 -90 q0 -54 -38 -92q-38 -36 -90 -36q-54 0 -92 36q-36 38 -36 92z" />
<glyph unicode="&#x201d;" horiz-adv-x="938" d="M128 1024q52 0 90 36q38 38 38 92v128q-54 0 -92 36q-36 38 -36 92q0 52 36 90q38 38 92 38q52 0 90 -38t38 -90v-256q0 -54 -38 -92q-38 -36 -90 -36h-128zM512 1024q52 0 90 36q38 38 38 92v128q-54 0 -92 36q-36 38 -36 92q0 52 36 90q38 38 92 38q52 0 90 -38t38 -90 v-256q0 -54 -38 -92q-38 -36 -90 -36h-128z" />
<glyph unicode="&#x2026;" horiz-adv-x="1278" d="M852 128q0 52 36 90q38 38 92 38q52 0 90 -38t38 -90q0 -54 -38 -92q-38 -36 -90 -36q-54 0 -92 36q-36 38 -36 92zM426 128q0 52 36 90q38 38 92 38q52 0 90 -38t38 -90q0 -54 -38 -92q-38 -36 -90 -36q-54 0 -92 36q-36 38 -36 92zM0 128q0 52 36 90q38 38 92 38 q52 0 90 -38t38 -90q0 -54 -38 -92q-38 -36 -90 -36q-54 0 -92 36q-36 38 -36 92z" />
<glyph unicode="&#x202f;" horiz-adv-x="332" />
<glyph unicode="&#x205f;" horiz-adv-x="416" />
<glyph unicode="&#x2122;" horiz-adv-x="3284" d="M1578 0q54 0 92 36q36 38 36 92v1024l384 384v128q0 -54 36 -92q38 -36 92 -36l128 -128h128l128 128q52 0 90 36q38 38 38 92v-128l384 -384v-1024q0 -54 -38 -92q-38 -36 -90 -36h-128q52 0 90 36q38 38 38 92v1024l-256 256h-128q-54 0 -92 -38q-36 -38 -36 -90v-768 q0 -54 36 -92q38 -36 92 -36h-384q52 0 90 36q38 38 38 92v768q0 52 -38 90t-90 38q-54 0 -92 -38q-36 -38 -36 -90v-1152q0 -54 -38 -92q-38 -36 -90 -36h-384zM1834 192q0 -28 18 -46t46 -18q26 0 44 18q20 18 20 46v896q0 26 -20 44q-18 20 -44 20q-28 0 -46 -20 q-18 -18 -18 -44v-896zM0 1536v128q0 -54 36 -92q38 -36 92 -36h1280q52 0 90 36q38 38 38 92v-128q0 -54 -38 -92q-38 -36 -90 -36h-384q-54 0 -92 -38q-36 -38 -36 -90v-1152q0 -54 36 -92q38 -36 92 -36h-640q52 0 90 36q38 38 38 92v1152q0 52 -38 90t-90 38h-256 q-54 0 -92 36q-36 38 -36 92zM256 960q0 26 18 44q18 20 46 20q26 0 44 -20q20 -18 20 -44q0 -28 -20 -46q-18 -18 -44 -18q-28 0 -46 18t-18 46zM640 192q0 -28 18 -46t46 -18q26 0 44 18q20 18 20 46v1152q0 26 -20 44q-18 20 -44 20q-28 0 -46 -20q-18 -18 -18 -44v-1152 z" />
<glyph unicode="&#xe000;" horiz-adv-x="500" d="M0 0v0v0v0v0z" />
</font>
</defs>
</svg>
